<svg width="12" height="22" fill="none" xmlns="http://www.w3.org/2000/svg"><path fill-rule="evenodd" clip-rule="evenodd" d="M2.09 12.084A.31.31 0 012.308 12a.328.328 0 01.218.084L6 15.31l3.474-3.226A.312.312 0 019.692 12a.328.328 0 01.218.084.268.268 0 010 .405l-3.692 3.427A.31.31 0 016 16a.328.328 0 01-.218-.084L2.09 12.488a.285.285 0 01-.067-.092.268.268 0 01.067-.312z" fill="currentColor"/><path fill-rule="evenodd" clip-rule="evenodd" d="M2.09 12.084A.31.31 0 012.308 12a.328.328 0 01.218.084L6 15.31l3.474-3.226A.312.312 0 019.692 12a.328.328 0 01.218.084.268.268 0 010 .405l-3.692 3.427A.31.31 0 016 16a.328.328 0 01-.218-.084L2.09 12.488a.285.285 0 01-.067-.092.268.268 0 01.067-.312z" fill="currentColor"/><path clip-rule="evenodd" d="M2.09 12.084A.31.31 0 012.308 12a.328.328 0 01.218.084L6 15.31l3.474-3.226A.312.312 0 019.692 12a.328.328 0 01.218.084.268.268 0 010 .405l-3.692 3.427A.31.31 0 016 16a.328.328 0 01-.218-.084L2.09 12.488a.285.285 0 01-.067-.092.268.268 0 01.067-.312z" stroke="currentColor" stroke-width=".5"/><path clip-rule="evenodd" d="M2.09 12.084A.31.31 0 012.308 12a.328.328 0 01.218.084L6 15.31l3.474-3.226A.312.312 0 019.692 12a.328.328 0 01.218.084.268.268 0 010 .405l-3.692 3.427A.31.31 0 016 16a.328.328 0 01-.218-.084L2.09 12.488a.285.285 0 01-.067-.092.268.268 0 01.067-.312z" stroke="currentColor" stroke-width=".5"/></svg>