<svg width="182" height="29" fill="none" xmlns="http://www.w3.org/2000/svg"><g clip-path="url(#clip0_4401_286)"><path fill-rule="evenodd" clip-rule="evenodd" d="M48.955.003c-11.4 0-16.481 6.92-16.481 14.547 0 7.61 5.857 14.447 16.481 14.447 11.252 0 16.614-6.837 16.614-14.447 0-7.626-5.362-14.547-16.614-14.547zm4.933 16.21c.198 4.94-1.056 9.928-3.58 10.5-2.672-.37-5.51-5.611-5.807-13.59-.182-4.637.61-9.794 3.399-10.852 2.342.436 5.675 5.358 5.988 13.942zM83.403.675H71.838v27.65h19.368v-3.192l-7.803.017V.675zm24.664 20.477h-8.694s-1.337 6.165-1.584 7.173h-3.366l6.17-27.65h15.344l6.087 27.65h-12.357l-1.6-7.173zm-.627-2.855L104.322 4.32h-1.188l-3.118 13.977h7.424zM166.239.675h-14.584v27.65h11.565v-9.793l1.551.15 4.273 9.643H181.5l-6.022-9.373-.479-.874c3.201-1.529 5.181-4.233 5.28-8.853.066-2.318-.627-4.703-2.326-6.3-2.61-2.456-6.495-2.362-9.943-2.28-.607.016-1.2.03-1.771.03zm.132 15.891s-2.508-.168-3.135-.285V2.909c5.511 0 5.511 4.653 5.511 6.367 0 4.149-2.376 7.29-2.376 7.29zm-25.275 11.76h-11.565V.674h11.565v27.65zM28.662 8.99c0-7.71-6.649-8.315-13.462-8.315H.5v27.65h11.582v-7.744c1.105.235 2.54.37 4.042.37 6.203 0 12.538-2.15 12.538-11.96zM15.2 18.313s-2.425-.134-3.118-.285V2.909c5.46 0 5.46 5.258 5.46 7.207 0 5.224-2.342 8.197-2.342 8.197z" fill="currentColor"/></g><defs><clipPath id="clip0_4401_286"><path fill="#fff" transform="translate(.5)" d="M0 0h181v29H0z"/></clipPath></defs></svg>