<?xml version="1.0" encoding="UTF-8"?><!DOCTYPE svg PUBLIC "-//W3C//DTD SVG 1.1//EN" "http://www.w3.org/Graphics/SVG/1.1/DTD/svg11.dtd"><svg xmlns="http://www.w3.org/2000/svg" xmlns:xlink="http://www.w3.org/1999/xlink"><defs>
<clipPath id="clip0_4401_286">
<rect width="181" height="29" fill="white" transform="translate(0.5)"/>
</clipPath>
</defs><symbol id="arrow-diag" viewBox="0 0 12 14">
<path d="M9.50033 3.9375L2.16699 10.9375M3.38921 3.9375H9.50033V9.77083" stroke="#EAEAEA" stroke-width="1.3" stroke-linecap="round" stroke-linejoin="round"/>
</symbol><symbol id="arrow-icon" viewBox="0 0 12 22">
<path fill-rule="evenodd" clip-rule="evenodd" d="M2.09039 12.0839C2.11896 12.0573 2.15291 12.0362 2.19029 12.0218C2.22767 12.0074 2.26774 12 2.30821 12C2.34867 12 2.38874 12.0074 2.42612 12.0218C2.4635 12.0362 2.49745 12.0573 2.52603 12.0839L6.00008 15.31L9.47413 12.0839C9.50274 12.0574 9.5367 12.0363 9.57407 12.0219C9.61145 12.0075 9.6515 12.0001 9.69196 12.0001C9.73241 12.0001 9.77247 12.0075 9.80984 12.0219C9.84721 12.0363 9.88117 12.0574 9.90978 12.0839C9.93838 12.1105 9.96107 12.142 9.97655 12.1767C9.99203 12.2114 10 12.2486 10 12.2862C10 12.3237 9.99203 12.3609 9.97655 12.3956C9.96107 12.4303 9.93838 12.4618 9.90978 12.4884L6.2179 15.9161C6.18932 15.9427 6.15537 15.9638 6.118 15.9782C6.08062 15.9926 6.04055 16 6.00008 16C5.95961 16 5.91954 15.9926 5.88217 15.9782C5.84479 15.9638 5.81084 15.9427 5.78226 15.9161L2.09039 12.4884C2.06173 12.4619 2.039 12.4303 2.02349 12.3956C2.00798 12.3609 2 12.3237 2 12.2862C2 12.2486 2.00798 12.2114 2.02349 12.1767C2.039 12.142 2.06173 12.1105 2.09039 12.0839Z" fill="currentColor"/>
<path fill-rule="evenodd" clip-rule="evenodd" d="M2.09039 12.0839C2.11896 12.0573 2.15291 12.0362 2.19029 12.0218C2.22767 12.0074 2.26774 12 2.30821 12C2.34867 12 2.38874 12.0074 2.42612 12.0218C2.4635 12.0362 2.49745 12.0573 2.52603 12.0839L6.00008 15.31L9.47413 12.0839C9.50274 12.0574 9.5367 12.0363 9.57407 12.0219C9.61145 12.0075 9.6515 12.0001 9.69196 12.0001C9.73241 12.0001 9.77247 12.0075 9.80984 12.0219C9.84721 12.0363 9.88117 12.0574 9.90978 12.0839C9.93838 12.1105 9.96107 12.142 9.97655 12.1767C9.99203 12.2114 10 12.2486 10 12.2862C10 12.3237 9.99203 12.3609 9.97655 12.3956C9.96107 12.4303 9.93838 12.4618 9.90978 12.4884L6.2179 15.9161C6.18932 15.9427 6.15537 15.9638 6.118 15.9782C6.08062 15.9926 6.04055 16 6.00008 16C5.95961 16 5.91954 15.9926 5.88217 15.9782C5.84479 15.9638 5.81084 15.9427 5.78226 15.9161L2.09039 12.4884C2.06173 12.4619 2.039 12.4303 2.02349 12.3956C2.00798 12.3609 2 12.3237 2 12.2862C2 12.2486 2.00798 12.2114 2.02349 12.1767C2.039 12.142 2.06173 12.1105 2.09039 12.0839Z" fill="currentColor"/>
<path fill-rule="evenodd" clip-rule="evenodd" d="M2.09039 12.0839C2.11896 12.0573 2.15291 12.0362 2.19029 12.0218C2.22767 12.0074 2.26774 12 2.30821 12C2.34867 12 2.38874 12.0074 2.42612 12.0218C2.4635 12.0362 2.49745 12.0573 2.52603 12.0839L6.00008 15.31L9.47413 12.0839C9.50274 12.0574 9.5367 12.0363 9.57407 12.0219C9.61145 12.0075 9.6515 12.0001 9.69196 12.0001C9.73241 12.0001 9.77247 12.0075 9.80984 12.0219C9.84721 12.0363 9.88117 12.0574 9.90978 12.0839C9.93838 12.1105 9.96107 12.142 9.97655 12.1767C9.99203 12.2114 10 12.2486 10 12.2862C10 12.3237 9.99203 12.3609 9.97655 12.3956C9.96107 12.4303 9.93838 12.4618 9.90978 12.4884L6.2179 15.9161C6.18932 15.9427 6.15537 15.9638 6.118 15.9782C6.08062 15.9926 6.04055 16 6.00008 16C5.95961 16 5.91954 15.9926 5.88217 15.9782C5.84479 15.9638 5.81084 15.9427 5.78226 15.9161L2.09039 12.4884C2.06173 12.4619 2.039 12.4303 2.02349 12.3956C2.00798 12.3609 2 12.3237 2 12.2862C2 12.2486 2.00798 12.2114 2.02349 12.1767C2.039 12.142 2.06173 12.1105 2.09039 12.0839Z" stroke="currentColor" stroke-width="0.5"/>
<path fill-rule="evenodd" clip-rule="evenodd" d="M2.09039 12.0839C2.11896 12.0573 2.15291 12.0362 2.19029 12.0218C2.22767 12.0074 2.26774 12 2.30821 12C2.34867 12 2.38874 12.0074 2.42612 12.0218C2.4635 12.0362 2.49745 12.0573 2.52603 12.0839L6.00008 15.31L9.47413 12.0839C9.50274 12.0574 9.5367 12.0363 9.57407 12.0219C9.61145 12.0075 9.6515 12.0001 9.69196 12.0001C9.73241 12.0001 9.77247 12.0075 9.80984 12.0219C9.84721 12.0363 9.88117 12.0574 9.90978 12.0839C9.93838 12.1105 9.96107 12.142 9.97655 12.1767C9.99203 12.2114 10 12.2486 10 12.2862C10 12.3237 9.99203 12.3609 9.97655 12.3956C9.96107 12.4303 9.93838 12.4618 9.90978 12.4884L6.2179 15.9161C6.18932 15.9427 6.15537 15.9638 6.118 15.9782C6.08062 15.9926 6.04055 16 6.00008 16C5.95961 16 5.91954 15.9926 5.88217 15.9782C5.84479 15.9638 5.81084 15.9427 5.78226 15.9161L2.09039 12.4884C2.06173 12.4619 2.039 12.4303 2.02349 12.3956C2.00798 12.3609 2 12.3237 2 12.2862C2 12.2486 2.00798 12.2114 2.02349 12.1767C2.039 12.142 2.06173 12.1105 2.09039 12.0839Z" stroke="currentColor" stroke-width="0.5"/>
</symbol><symbol id="arrow-right" viewBox="0 0 12 12">
<path fill-rule="evenodd" clip-rule="evenodd" d="M5.58392 9.90961C5.55732 9.88104 5.53621 9.84709 5.52181 9.80971C5.50741 9.77233 5.5 9.73226 5.5 9.69179C5.5 9.65133 5.50741 9.61126 5.52181 9.57388C5.53621 9.5365 5.55732 9.50255 5.58392 9.47397L8.80995 5.99992L5.58392 2.52587C5.55736 2.49726 5.53629 2.4633 5.52192 2.42593C5.50755 2.38855 5.50015 2.3485 5.50015 2.30804C5.50015 2.26759 5.50755 2.22753 5.52192 2.19016C5.53629 2.15279 5.55736 2.11883 5.58392 2.09022C5.61048 2.06162 5.642 2.03893 5.6767 2.02345C5.7114 2.00797 5.74859 2 5.78615 2C5.82371 2 5.8609 2.00797 5.8956 2.02345C5.9303 2.03893 5.96183 2.06162 5.98839 2.09022L9.41608 5.7821C9.44268 5.81068 9.46379 5.84463 9.47819 5.882C9.49259 5.91938 9.5 5.95945 9.5 5.99992C9.5 6.04039 9.49259 6.08046 9.47819 6.11783C9.46379 6.15521 9.44268 6.18916 9.41608 6.21774L5.98839 9.90961C5.96185 9.93827 5.93033 9.961 5.89563 9.97651C5.86093 9.99202 5.82372 10 5.78615 10C5.74858 10 5.71138 9.99202 5.67667 9.97651C5.64197 9.961 5.61045 9.93827 5.58392 9.90961Z" fill="currentColor"/>
<path fill-rule="evenodd" clip-rule="evenodd" d="M5.58392 9.90961C5.55732 9.88104 5.53621 9.84709 5.52181 9.80971C5.50741 9.77233 5.5 9.73226 5.5 9.69179C5.5 9.65133 5.50741 9.61126 5.52181 9.57388C5.53621 9.5365 5.55732 9.50255 5.58392 9.47397L8.80995 5.99992L5.58392 2.52587C5.55736 2.49726 5.53629 2.4633 5.52192 2.42593C5.50755 2.38855 5.50015 2.3485 5.50015 2.30804C5.50015 2.26759 5.50755 2.22753 5.52192 2.19016C5.53629 2.15279 5.55736 2.11883 5.58392 2.09022C5.61048 2.06162 5.642 2.03893 5.6767 2.02345C5.7114 2.00797 5.74859 2 5.78615 2C5.82371 2 5.8609 2.00797 5.8956 2.02345C5.9303 2.03893 5.96183 2.06162 5.98839 2.09022L9.41608 5.7821C9.44268 5.81068 9.46379 5.84463 9.47819 5.882C9.49259 5.91938 9.5 5.95945 9.5 5.99992C9.5 6.04039 9.49259 6.08046 9.47819 6.11783C9.46379 6.15521 9.44268 6.18916 9.41608 6.21774L5.98839 9.90961C5.96185 9.93827 5.93033 9.961 5.89563 9.97651C5.86093 9.99202 5.82372 10 5.78615 10C5.74858 10 5.71138 9.99202 5.67667 9.97651C5.64197 9.961 5.61045 9.93827 5.58392 9.90961Z" fill="currentColor"/>
<path fill-rule="evenodd" clip-rule="evenodd" d="M5.58392 9.90961C5.55732 9.88104 5.53621 9.84709 5.52181 9.80971C5.50741 9.77233 5.5 9.73226 5.5 9.69179C5.5 9.65133 5.50741 9.61126 5.52181 9.57388C5.53621 9.5365 5.55732 9.50255 5.58392 9.47397L8.80995 5.99992L5.58392 2.52587C5.55736 2.49726 5.53629 2.4633 5.52192 2.42593C5.50755 2.38855 5.50015 2.3485 5.50015 2.30804C5.50015 2.26759 5.50755 2.22753 5.52192 2.19016C5.53629 2.15279 5.55736 2.11883 5.58392 2.09022C5.61048 2.06162 5.642 2.03893 5.6767 2.02345C5.7114 2.00797 5.74859 2 5.78615 2C5.82371 2 5.8609 2.00797 5.8956 2.02345C5.9303 2.03893 5.96183 2.06162 5.98839 2.09022L9.41608 5.7821C9.44268 5.81068 9.46379 5.84463 9.47819 5.882C9.49259 5.91938 9.5 5.95945 9.5 5.99992C9.5 6.04039 9.49259 6.08046 9.47819 6.11783C9.46379 6.15521 9.44268 6.18916 9.41608 6.21774L5.98839 9.90961C5.96185 9.93827 5.93033 9.961 5.89563 9.97651C5.86093 9.99202 5.82372 10 5.78615 10C5.74858 10 5.71138 9.99202 5.67667 9.97651C5.64197 9.961 5.61045 9.93827 5.58392 9.90961Z" stroke="currentColor" stroke-width="0.5"/>
<path fill-rule="evenodd" clip-rule="evenodd" d="M5.58392 9.90961C5.55732 9.88104 5.53621 9.84709 5.52181 9.80971C5.50741 9.77233 5.5 9.73226 5.5 9.69179C5.5 9.65133 5.50741 9.61126 5.52181 9.57388C5.53621 9.5365 5.55732 9.50255 5.58392 9.47397L8.80995 5.99992L5.58392 2.52587C5.55736 2.49726 5.53629 2.4633 5.52192 2.42593C5.50755 2.38855 5.50015 2.3485 5.50015 2.30804C5.50015 2.26759 5.50755 2.22753 5.52192 2.19016C5.53629 2.15279 5.55736 2.11883 5.58392 2.09022C5.61048 2.06162 5.642 2.03893 5.6767 2.02345C5.7114 2.00797 5.74859 2 5.78615 2C5.82371 2 5.8609 2.00797 5.8956 2.02345C5.9303 2.03893 5.96183 2.06162 5.98839 2.09022L9.41608 5.7821C9.44268 5.81068 9.46379 5.84463 9.47819 5.882C9.49259 5.91938 9.5 5.95945 9.5 5.99992C9.5 6.04039 9.49259 6.08046 9.47819 6.11783C9.46379 6.15521 9.44268 6.18916 9.41608 6.21774L5.98839 9.90961C5.96185 9.93827 5.93033 9.961 5.89563 9.97651C5.86093 9.99202 5.82372 10 5.78615 10C5.74858 10 5.71138 9.99202 5.67667 9.97651C5.64197 9.961 5.61045 9.93827 5.58392 9.90961Z" stroke="currentColor" stroke-width="0.5"/>
</symbol><symbol id="logo-footer" viewBox="0 0 182 29">
<g clip-path="url(#clip0_4401_286)">
<path fill-rule="evenodd" clip-rule="evenodd" d="M48.9553 0.00292969C37.5552 0.00292969 32.4738 6.9239 32.4738 14.5504C32.4738 22.1601 38.3306 28.9971 48.9553 28.9971C60.207 28.9971 65.5689 22.1601 65.5689 14.5504C65.5689 6.9239 60.207 0.00292969 48.9553 0.00292969ZM53.8883 16.2135C54.0862 21.1522 52.8324 26.1413 50.3082 26.7125C47.6355 26.3429 44.7978 21.1018 44.5009 13.1225C44.3194 8.48616 45.1113 3.32903 47.8995 2.27072C50.2422 2.70748 53.5748 7.62944 53.8883 16.2135ZM83.4028 0.674863H71.8377V28.3251H91.2064V25.1334L83.4028 25.1502V0.674863ZM108.067 21.1522H99.3726C99.3726 21.1522 98.0363 27.3172 97.7888 28.3251H94.4232L100.593 0.674863H115.937L122.024 28.3251H109.667L108.067 21.1522ZM107.44 18.2965L104.322 4.32013H103.134L100.016 18.2965H107.44ZM166.239 0.674879H151.655V28.3252H163.22V18.5317L164.771 18.6828L169.044 28.3252H181.5L175.478 18.9516L174.999 18.0781C178.2 16.5494 180.18 13.8449 180.279 9.2253C180.345 6.90711 179.652 4.52173 177.953 2.92587C175.343 0.469135 171.458 0.56281 168.01 0.645933C167.403 0.660569 166.81 0.674879 166.239 0.674879ZM166.371 16.5662C166.371 16.5662 163.863 16.3982 163.236 16.2807V2.90908C168.747 2.90908 168.747 7.56225 168.747 9.2757C168.747 13.4249 166.371 16.5662 166.371 16.5662ZM141.096 28.3251H129.531V0.674863H141.096V28.3251ZM28.6622 8.99011C28.6622 1.27961 22.0134 0.674863 15.1998 0.674863H0.5V28.3251H12.0816V20.581C13.187 20.8162 14.6223 20.9506 16.1236 20.9506C22.3269 20.9506 28.6622 18.8004 28.6622 8.99011ZM15.1998 18.3133C15.1998 18.3133 12.7745 18.1789 12.0816 18.0277V2.90906C17.5425 2.90906 17.5425 8.16698 17.5425 10.1156C17.5425 15.3399 15.1998 18.3133 15.1998 18.3133Z" fill="currentColor"/>
</g>

</symbol><symbol id="pin-icon" viewBox="0 0 40 40">
<path d="M20 8C13.3694 8 8 13.3734 8 20.009C8 25.0939 11.1532 29.4395 15.6216 31.1886C15.5135 30.2329 15.4234 28.7904 15.6577 27.7446C15.8739 26.8069 17.0631 21.7761 17.0631 21.7761C17.0631 21.7761 16.7027 21.0548 16.7027 19.991C16.7027 18.314 17.6757 17.0699 18.8649 17.0699C19.8919 17.0699 20.3784 17.8452 20.3784 18.7648C20.3784 19.7926 19.7297 21.3434 19.3874 22.7678C19.0991 23.9579 19.982 24.9316 21.1712 24.9316C23.2973 24.9316 24.9369 22.6777 24.9369 19.432C24.9369 16.565 22.8649 14.5455 19.9279 14.5455C16.5225 14.5455 14.5045 17.1059 14.5045 19.7566C14.5045 20.7844 14.9009 21.9023 15.4054 22.4974C15.4955 22.6236 15.5135 22.7137 15.4955 22.84C15.4054 23.2186 15.2072 24.0301 15.1712 24.1923C15.1171 24.4087 14.991 24.4628 14.7748 24.3546C13.2793 23.6514 12.3423 21.4696 12.3423 19.7025C12.3423 15.9159 15.0991 12.4358 20.2703 12.4358C24.4324 12.4358 27.6577 15.411 27.6577 19.3599C27.6577 23.4891 25.045 26.8249 21.4414 26.8249C20.2342 26.8249 19.0811 26.1938 18.6847 25.4545C18.6847 25.4545 18.0901 27.7446 17.9459 28.3035C17.6757 29.3494 16.9369 30.6476 16.4505 31.4591C17.5676 31.8017 18.7568 32 20 32C26.6306 32 32 26.6266 32 19.991C32 13.3734 26.6306 8 20 8Z" fill="currentColor"/>
</symbol><symbol id="telegram-icon" viewBox="0 0 40 40">
<path d="M9.4714 18.71C9.4714 18.71 20.086 14.3197 23.7673 12.7737C25.1786 12.1554 29.9643 10.1765 29.9643 10.1765C29.9643 10.1765 32.1732 9.31088 31.9891 11.4133C31.9277 12.279 31.4369 15.309 30.9461 18.5864C30.2098 23.2242 29.4121 28.2948 29.4121 28.2948C29.4121 28.2948 29.2894 29.717 28.2464 29.9644C27.2033 30.2117 25.4853 29.0987 25.1786 28.8513C24.9331 28.6658 20.5768 25.8831 18.9816 24.5227C18.5521 24.1517 18.0613 23.4097 19.0429 22.544C21.2518 20.5033 23.8901 17.968 25.4853 16.3603C26.2216 15.6182 26.9579 13.8868 23.8901 15.9892C19.5338 19.0193 15.2389 21.8638 15.2389 21.8638C15.2389 21.8638 14.2572 22.4821 12.4165 21.9255C10.5757 21.3691 8.42828 20.627 8.42828 20.627C8.42828 20.627 6.95582 19.6995 9.4714 18.71Z" fill="currentColor"/>
</symbol><symbol id="vk-icon" viewBox="0 0 40 40">
<path d="M21.0718 27C12.8719 27 8.19488 21.3694 8 12H12.1074C12.2423 18.8769 15.2704 21.7898 17.6689 22.3904V12H21.5366V17.9309C23.9051 17.6757 26.3933 14.973 27.2328 12H31.1004C30.4558 15.6637 27.7575 18.3664 25.8387 19.4775C27.7575 20.3784 30.8307 22.7357 32 27H27.7425C26.8281 24.1471 24.5497 21.9399 21.5366 21.6396V27H21.0718Z" fill="currentColor"/>
</symbol><symbol id="youtube-icon" viewBox="0 0 40 40">
<path d="M30.98 13.34C30.329 12.182 29.6225 11.969 28.184 11.888C26.747 11.7905 23.1335 11.75 20.003 11.75C16.8665 11.75 13.2515 11.7905 11.816 11.8865C10.3805 11.969 9.6725 12.1805 9.0155 13.34C8.345 14.4965 8 16.4885 8 19.9955C8 19.9985 8 20 8 20C8 20.003 8 20.0045 8 20.0045V20.0075C8 23.4995 8.345 25.5065 9.0155 26.651C9.6725 27.809 10.379 28.019 11.8145 28.1165C13.2515 28.2005 16.8665 28.25 20.003 28.25C23.1335 28.25 26.747 28.2005 28.1855 28.118C29.624 28.0205 30.3305 27.8105 30.9815 26.6525C31.658 25.508 32 23.501 32 20.009C32 20.009 32 20.0045 32 20.0015C32 20.0015 32 19.9985 32 19.997C32 16.4885 31.658 14.4965 30.98 13.34ZM17 24.5V15.5L24.5 20L17 24.5Z" fill="currentColor"/>
</symbol></svg>